<?xml version="1.0" encoding="utf-8"?>
<!-- Generator: Adobe Illustrator 22.1.0, SVG Export Plug-In . SVG Version: 6.00 Build 0)  -->
<svg version="1.1" id="Capa_1" xmlns="http://www.w3.org/2000/svg" xmlns:xlink="http://www.w3.org/1999/xlink" x="0px" y="0px"
	 viewBox="0 0 247.6 110.7" style="enable-background:new 0 0 247.6 110.7;" xml:space="preserve">
<style type="text/css">
	.st0{fill:#87441D;}
	.st1{fill:#83321D;}
	.st2{fill:#F0D4A5;}
	.st3{fill:url(#SVGID_1_);}
	.st4{fill:url(#SVGID_2_);}
	.st5{fill:url(#SVGID_3_);}
	.st6{fill:url(#SVGID_4_);}
	.st7{fill:url(#SVGID_5_);}
	.st8{fill:url(#SVGID_6_);}
	.st9{fill:url(#SVGID_7_);}
	.st10{fill:url(#SVGID_8_);}
	.st11{opacity:0.85;fill:url(#SVGID_9_);}
	.st12{opacity:0.85;fill:url(#SVGID_10_);}
	.st13{opacity:0.85;fill:url(#SVGID_11_);}
	.st14{opacity:0.85;fill:url(#SVGID_12_);}
	.st15{opacity:0.85;fill:url(#SVGID_13_);}
	.st16{opacity:0.85;fill:url(#SVGID_14_);}
	.st17{opacity:0.85;fill:url(#SVGID_15_);}
	.st18{opacity:0.85;fill:url(#SVGID_16_);}
	.st19{opacity:0.85;fill:url(#SVGID_17_);}
</style>
<g>
	<g>
		<path class="st0" d="M243,46.9L243,46.9c-0.1-0.1-0.2-0.2-0.3-0.2c0-0.1,0-0.1,0-0.2c1.1-4.6,2.1-9.3,3.2-14l0-0.2
			c1-5,1.5-10.2,1.5-15.6c0-9.9-0.4-12.7-3.1-15c-1.6-1.3-3.7-1.9-5.7-1.6c-1,0.2-2.2,0.4-3.9,0.8c-1.7,0.4-2.6,0.6-3,0.7
			c-0.4,0.1-1.3,0.2-3,0.4c-1.7,0.2-3,0.3-3.9,0.5c-3.2,0.5-6.5,3.4-6.5,8.4c0,1.3,0,3.3,0.1,5.8c0.1,2.4,0.1,4.2,0.1,5.3
			c0,0.7,0,2.1-0.2,4.7c0,0.8-0.1,1.6-0.1,2.3c-0.2-0.2-0.3-0.3-0.5-0.5l0,0c-5.4-4.5-12.5-6.2-20.6-4.8c-7.7,1.3-14,4.8-18.8,10.3
			c-1.1-1.8-2.9-3.1-5.1-3.5l-0.1,0c-0.9-0.1-1-0.2-8.3,0.3c-6.8,0.4-7.4,0.5-7.8,0.6c-0.7,0.1-2.1,0.5-3.4,1.6
			c-2.2-0.6-4.9-0.8-8.1-0.2c-6.9,1.2-12.6,4.6-16.9,10.1c-0.3,0.3-0.5,0.7-0.7,1c-1.1-1.3-2.4-2.4-4-3.3l-0.1,0
			c-3.7-2-8.1-2.6-13.1-1.7c-2.9,0.5-5.8,1.8-9.1,3.9c-1.5-1.1-3.5-1.6-5.3-1.2c-0.7,0.1-1.4,0.2-8.4,2.8c-1.7,0.5-3.2,1-4.5,1.4
			c0.1-0.9,0.2-1.8,0.2-2.8c0-4.4-2-8.2-5.6-10.5c-3-2-6.6-2.7-10.5-2c-3.6,0.6-6.7,2.2-9.3,4.7c-1.3,1.3-2.4,2.7-3.1,4.3
			c-1.5-1.3-3-2.2-4.5-2.9c-4.5-2-10.4-2.4-18.6-1.3c-1.6,0.2-6.6,1-15.6,2.6c-8.6,1.5-9.7,1.8-10.3,2c-4.8,1.4-6.4,5.3-6.2,8.1
			l0,0.6c0.2,4.4,0.4,7.7,0.4,9.9C0.9,66.9,1,72.8,1,75.9c0,2.8-0.2,7.2-0.5,13.1C0.2,95.1,0,99.7,0,102.8c0,4.4,3.3,7.8,7.8,7.9
			c0.2,0,0.4,0,0.6,0c1.8,0,5.6-0.3,18.9-2.6l2.8-0.5c1.3-0.2,2.3-0.4,3-0.5c9.8-1.7,17.1-5,21.9-10c0.1,0.2,0.2,0.3,0.2,0.5
			l0.2,0.3c0.8,1.3,2.8,3.6,6.9,3.6l0.1,0c1,0,2.6-0.1,7.5-0.9c4.8-0.8,6.4-1.3,7.3-1.6c1.6-0.5,2.9-1.5,3.9-2.7
			c1.3,0.8,2.8,1.2,4.3,1.2l0.2,0l0.1,0c1,0,2.8-0.2,7.2-0.9c3.3-0.6,5.4-1,6.6-1.3l0.1,0c2.5-0.7,4.4-2.5,5.4-4.7
			c1.4,1.6,3.4,2.5,5.8,2.6l0.1,0c1,0,2.7-0.1,7.7-0.9c4.7-0.8,6.1-1.2,6.9-1.4c0.4-0.1,0.8-0.3,1.2-0.5c0.2,1.9,1.4,5.5,6.5,7.1
			c2.4,0.7,5.3,0.9,7.8,0.9c0.6,0,1.2,0,1.7,0c3.6,0,6.6-0.2,9-0.6c9.5-1.6,16.6-5.1,21.1-10.5c2.9-3.5,4.8-7.9,5.8-13.3
			c0.2,0.2,0.3,0.3,0.5,0.5c4.2,3.4,9.2,5.1,15,5.1c0,0,0,0,0,0c1.7,0,3.5-0.2,5.4-0.5c7.8-1.3,14.3-5,19.2-10.8
			c0.4-0.5,0.8-1,1.2-1.5c0.7,1.4,1.6,2.6,2.8,3.6c2.3,2.1,5.3,3.2,8.6,3.2c0.9,0,1.8-0.1,2.7-0.2c3.9-0.7,7.3-2.6,9.8-5.7
			c2.4-3,3.7-6.6,3.7-10.4C247.6,53.1,246,49.5,243,46.9z"/>
	</g>
	<path class="st1" d="M243,46.9L243,46.9c-0.1-0.1-0.2-0.2-0.3-0.2c0-0.1,0-0.1,0-0.2c1.1-4.6,2.1-9.3,3.2-14l0-0.2
		c1-5,1.5-10.2,1.5-15.6c0-9.9-0.4-12.7-3.1-15c-1.6-1.3-3.7-1.9-5.7-1.6c-1,0.2-2.2,0.4-3.9,0.8c-1.7,0.4-2.6,0.6-3,0.7
		c-0.4,0.1-1.3,0.2-3,0.4c-1.7,0.2-3,0.3-3.9,0.5c-3.2,0.5-6.5,3.4-6.5,8.4c0,1.3,0,3.3,0.1,5.8c0.1,2.4,0.1,4.2,0.1,5.3
		c0,0.7,0,2.1-0.2,4.7c0,0.8-0.1,1.6-0.1,2.3c-0.2-0.2-0.3-0.3-0.5-0.5l0,0c-5.4-4.5-12.5-6.2-20.6-4.8c-7.7,1.3-14,4.8-18.8,10.3
		c-1.1-1.8-2.9-3.1-5.1-3.5l-0.1,0c-0.9-0.1-1-0.2-8.3,0.3c-6.8,0.4-7.4,0.5-7.8,0.6c-0.7,0.1-2.1,0.5-3.4,1.6
		c-2.2-0.6-4.9-0.8-8.1-0.2c-6.9,1.2-12.6,4.6-16.9,10.1c-0.3,0.3-0.5,0.7-0.7,1c-1.1-1.3-2.4-2.4-4-3.3l-0.1,0
		c-3.7-2-8.1-2.6-13.1-1.7c-2.9,0.5-5.8,1.8-9.1,3.9c-1.5-1.1-3.5-1.6-5.3-1.2c-0.7,0.1-1.4,0.2-8.4,2.8c-1.7,0.5-3.2,1-4.5,1.4
		c0.1-0.9,0.2-1.8,0.2-2.8c0-4.4-2-8.2-5.6-10.5c-3-2-6.6-2.7-10.5-2c-3.6,0.6-6.7,2.2-9.3,4.7c-1.3,1.3-2.4,2.7-3.1,4.3
		c-1.5-1.3-3-2.2-4.5-2.9c-4.5-2-10.4-2.4-18.6-1.3c-1.6,0.2-6.6,1-15.6,2.6c-8.6,1.5-9.7,1.8-10.3,2c-4.8,1.4-6.4,5.3-6.2,8.1
		l0,0.6c0.2,4.4,0.4,7.7,0.4,9.9C0.9,66.9,1,72.8,1,75.9c0,2.8-0.2,7.2-0.5,13.1C0.2,95.1,0,99.7,0,102.8c0,4.4,3.3,7.8,7.8,7.9
		c0.2,0,0.4,0,0.6,0c1.8,0,5.6-0.3,18.9-2.6l2.8-0.5c1.3-0.2,2.3-0.4,3-0.5c9.8-1.7,17.1-5,21.9-10c0.1,0.2,0.2,0.3,0.2,0.5l0.2,0.3
		c0.8,1.3,2.8,3.6,6.9,3.6l0.1,0c1,0,2.6-0.1,7.5-0.9c4.8-0.8,6.4-1.3,7.3-1.6c1.6-0.5,2.9-1.5,3.9-2.7c1.3,0.8,2.8,1.2,4.3,1.2
		l0.2,0l0.1,0c1,0,2.8-0.2,7.2-0.9c3.3-0.6,5.4-1,6.6-1.3l0.1,0c2.5-0.7,4.4-2.5,5.4-4.7c1.4,1.6,3.4,2.5,5.8,2.6l0.1,0
		c1,0,2.7-0.1,7.7-0.9c4.7-0.8,6.1-1.2,6.9-1.4c0.4-0.1,0.8-0.3,1.2-0.5c0.2,1.9,1.4,5.5,6.5,7.1c2.4,0.7,5.3,0.9,7.8,0.9
		c0.6,0,1.2,0,1.7,0c3.6,0,6.6-0.2,9-0.6c9.5-1.6,16.6-5.1,21.1-10.5c2.9-3.5,4.8-7.9,5.8-13.3c0.2,0.2,0.3,0.3,0.5,0.5
		c4.2,3.4,9.2,5.1,15,5.1c0,0,0,0,0,0c1.7,0,3.5-0.2,5.4-0.5c7.8-1.3,14.3-5,19.2-10.8c0.4-0.5,0.8-1,1.2-1.5
		c0.7,1.4,1.6,2.6,2.8,3.6c2.3,2.1,5.3,3.2,8.6,3.2c0.9,0,1.8-0.1,2.7-0.2c3.9-0.7,7.3-2.6,9.8-5.7c2.4-3,3.7-6.6,3.7-10.4
		C247.6,53.1,246,49.5,243,46.9z"/>
	<g>
		<path class="st2" d="M51,63.3c0.1-0.1,0.2-0.3,0.4-0.5c1.2-1.6,2.2-3.1,3-4.6c1.1-2.2,1.6-4.2,1.6-6.1c0-6.9-2.5-11.4-7.3-13.6
			c-3.5-1.5-8.7-1.8-15.8-0.9c-1.5,0.2-6.6,1-15.4,2.5c-7.4,1.3-9.1,1.6-9.7,1.8c-2.3,0.7-2.5,2.2-2.4,2.8l0,0.5
			c0.2,4.4,0.4,7.8,0.5,10c0.3,8.7,0.5,14.6,0.5,17.8c0,2.9-0.2,7.4-0.5,13.4c-0.3,6-0.5,10.6-0.5,13.5c0,1.6,1.1,2.6,2.7,2.7
			c0.1,0,0.2,0,0.3,0c2.3,0,8.3-0.8,18.1-2.5l2.9-0.5c1.3-0.2,2.3-0.4,3-0.5c9.4-1.6,16.1-4.8,19.9-9.5c3.4-4.1,5.1-9,5.1-14.4
			c0-2.7-0.6-5.1-1.6-7.3C54.5,66,52.9,64.3,51,63.3z M25,54c0.5-0.2,1.4-0.4,3.2-0.7c3.5-0.6,5.2-0.6,6-0.5c1.6,0.2,2.2,1,2.2,2.5
			c0,2.5-2.5,4.2-7.5,5c-2.2,0.4-3.3,0.5-3.9,0.6c-0.1-0.5-0.2-1.4-0.2-3c0-0.5,0-1.2,0.1-2.3v0C25,55,25,54.5,25,54z M25.2,76.4
			c0.6-0.2,1.9-0.5,4.7-1c3.4-0.6,5-0.5,5.8-0.3c1,0.3,1.9,0.8,1.9,3c0,1.8-0.7,3.1-2.2,3.9c-0.7,0.4-2.3,1-5.7,1.6
			c-2.5,0.4-3.8,0.6-4.5,0.6c-0.1-0.6-0.1-1.7-0.1-3.8C25.1,78.1,25.2,77,25.2,76.4z"/>
		<path class="st2" d="M75.3,34.1c-1.9-1.2-4.1-1.7-6.7-1.2c-2.5,0.4-4.7,1.5-6.5,3.3c-2,2-3,4.3-3,6.8c0,3.5,1.7,5.3,3.2,6.3
			c1.3,0.8,2.9,1.3,4.7,1.3c0.7,0,1.4-0.1,2.2-0.2c7.8-1.3,9.4-6.2,9.4-10.1C78.5,37.6,77.4,35.5,75.3,34.1z"/>
		<path class="st2" d="M75.6,49.2c-0.8,0.1-2.1,0.4-3.7,0.8c-1.5,0.4-2.7,0.7-3.5,0.8c-0.7,0.1-1.9,0.2-3.4,0.3
			c-1.6,0.1-2.9,0.2-3.7,0.4c-1.8,0.3-2.4,1.5-2.4,2.6c0,0.2,0,0.4,0.1,1.1c0.6,4.4,0.9,10.6,0.9,18.2c0,1.9,0,4.8-0.1,8.6
			c-0.1,3.8-0.1,6.7-0.1,8.6c0,1.2,0.1,1.6,0.3,2l0,0.1c0.7,1.1,2,1.1,2.5,1.1c0,0,0,0,0,0c0.7,0,2.1-0.1,6.6-0.9
			c3.4-0.6,5.5-1,6.5-1.4c1.3-0.4,2.1-1.4,2.1-2.7c0-2,0-5-0.1-8.9C77.5,76,77.4,73,77.4,71c0-7,0.3-13.2,0.9-18.6
			c0.1-0.6,0.1-0.8,0.1-1c0-0.7-0.3-1.3-0.8-1.8C77.3,49.4,76.6,49,75.6,49.2z"/>
		<path class="st2" d="M126.2,64.4V51.2c0-4-1.6-6.9-4.7-8.6c-2.6-1.4-5.9-1.8-9.7-1.2c-2.7,0.5-5.7,2-9.2,4.6c-1,0.8-1.9,1.5-2.6,2
			c-0.2-2.2-0.5-3.1-1.2-3.7c-0.4-0.3-0.9-0.4-1.4-0.3c-0.3,0.1-1,0.2-7.6,2.6c-2.8,0.9-5.1,1.6-6.8,2.1l-0.2,0.1l-0.2,0.1
			c-0.9,0.5-1.4,1.4-1.4,2.4c0,0.3,0,0.6,0.1,1l0,0.1c1,3.6,1.5,8.7,1.5,15.4c0,2.2,0,5.4,0,9.7c0,4.3,0,7.5,0,9.7
			c0,1,0.4,1.6,0.8,2c0.5,0.5,1.2,0.8,2.1,0.8c0,0,0,0,0,0c1.1,0,3.2-0.3,6.5-0.8c3-0.5,5-0.9,6.1-1.2c1.5-0.5,2.4-1.6,2.4-3.3V62.2
			c0-0.1,0.1-0.9,1.7-2.3c1.5-1.2,2.5-1.6,3-1.7c1-0.2,1.8-0.1,2.2,0.3c0.5,0.5,0.8,1.5,0.8,3c0,1,0,2.6,0.1,4.6
			c0.1,2,0.1,3.5,0.1,4.5c0,1.3,0,3.3-0.1,5.9c-0.1,2.6-0.1,4.6-0.1,5.9c0,1.8,1.1,3,2.8,3.1c0.6,0,1.9-0.1,6.7-0.9
			c3.3-0.6,5.4-1,6.2-1.2c1.4-0.4,2.3-1.5,2.3-3c0-1.8,0-4.5,0-8C126.2,68.8,126.2,66.1,126.2,64.4z"/>
		<path class="st2" d="M172.4,33.1L172.4,33.1c-0.3,0-0.4-0.1-7.1,0.4c-6.5,0.4-7.1,0.5-7.3,0.6c-1.5,0.3-1.9,1.8-2,3.3
			c-2.4-1.9-5.6-2.6-9.5-1.9c-5.6,0.9-10.1,3.7-13.6,8.1c-3.3,4.2-4.9,9.2-4.9,14.8c0,5.6,1.8,10.2,5.3,13.5
			c3.7,3.5,8.4,4.8,14.1,3.8c3.3-0.6,6.2-1.8,8.7-3.6c-0.4,0.9-1.3,1.8-2.6,2.7c-1.8,1.2-3.5,1.9-5.3,2.2c-3.3,0.6-7,0.2-11-1.1
			c-0.3-0.1-0.6-0.2-0.9-0.2l-0.2,0l-0.2,0c-0.8,0.1-1.7,0.7-2.2,2.5C132,86,132,86.6,132,87c0,3,4.4,3.5,9.2,3.6c0.6,0,1.1,0,1.6,0
			c3.3,0,6-0.2,8.1-0.5c8.2-1.4,14.3-4.3,17.9-8.7c3.5-4.2,5.3-10.5,5.3-18.7c0-1.1,0-2.8,0-5.1c0-2.2,0-3.9,0-5
			c0-1.9,0.1-4.7,0.2-8.5c0.1-3.8,0.2-6.6,0.2-8.6C174.4,34.3,173.6,33.3,172.4,33.1z M152.6,49c1.1,0,1.9,0.3,2.7,1
			c1,0.9,1.5,2.2,1.5,3.7c0,1.7-0.5,3.2-1.7,4.6c-1.1,1.4-2.4,2.2-4,2.5c-1.5,0.3-2.6-0.1-3.6-1c-1-0.9-1.5-2.1-1.5-3.7
			c0-1.7,0.5-3.2,1.7-4.6c1.1-1.4,2.4-2.2,4-2.5C151.9,49,152.3,49,152.6,49z"/>
		<path class="st2" d="M214.5,29.9c-4.2-3.5-9.7-4.7-16.3-3.6c-6.7,1.1-12.1,4.2-16.1,9.1c-3.9,4.9-6,10.7-6,17.4
			c0,6.5,2.2,11.6,6.4,15c3.2,2.6,7.1,4,11.7,4c1.4,0,2.9-0.1,4.5-0.4c6.6-1.1,12-4.1,16-9c4.1-4.8,6.1-10.6,6.1-17.2
			C220.8,38.6,218.7,33.4,214.5,29.9z M204.2,47.5c0,1.9-0.5,3.6-1.6,5.1c-1.2,1.6-2.6,2.5-4.3,2.8c-1.7,0.3-2.9-0.1-3.9-1.2
			c-1-1.1-1.5-2.5-1.5-4.3c0-1.9,0.5-3.5,1.7-5.1c1.2-1.6,2.6-2.5,4.3-2.8c0.3-0.1,0.7-0.1,1-0.1c1.1,0,2,0.4,2.8,1.2
			C203.6,44.3,204.2,45.7,204.2,47.5z"/>
		<path class="st2" d="M223.6,29.4c0,1,0.4,3.5,3.9,14.8c0.5,1.6,2.1,2,3.5,2c0.8,0,1.6-0.1,2-0.2c2.6-0.4,4.2-1.6,4.6-3.3
			c1.1-4.7,2.2-9.3,3.2-14l0-0.1c0.9-4.6,1.4-9.5,1.4-14.6c0-9.9-0.6-10.4-1.3-11c-0.4-0.3-0.9-0.5-1.4-0.4c-0.8,0.1-2,0.4-3.6,0.8
			c-1.5,0.4-2.6,0.6-3.4,0.7c-0.7,0.1-1.9,0.3-3.3,0.4c-1.6,0.2-2.8,0.3-3.6,0.4c-0.6,0.1-2.1,0.6-2.1,3.2c0,1.2,0,3.1,0.1,5.6
			c0.1,2.4,0.1,4.3,0.1,5.5c0,1.1-0.1,2.8-0.2,5C223.7,26.6,223.6,28.2,223.6,29.4z"/>
		<path class="st2" d="M239.6,48.3c-1.8-1.6-4.1-2.1-6.9-1.6c-2.7,0.5-4.9,1.7-6.6,3.7c-1.7,2-2.5,4.4-2.5,7.1c0,2.8,0.9,5,2.6,6.6
			c1.4,1.2,3.1,1.9,5.1,1.9c0.6,0,1.2-0.1,1.9-0.2c2.7-0.5,4.9-1.7,6.6-3.8c1.7-2,2.5-4.4,2.5-7.1C242.3,52,241.4,49.9,239.6,48.3z"
			/>
	</g>
	<g>
		<radialGradient id="SVGID_1_" cx="122.0086" cy="64.8511" r="122.4873" gradientUnits="userSpaceOnUse">
			<stop  offset="0" style="stop-color:#DD9D30"/>
			<stop  offset="0.5371" style="stop-color:#D6882E"/>
			<stop  offset="1" style="stop-color:#C65F20"/>
		</radialGradient>
		<path class="st3" d="M49.7,64.5c-0.7-0.3-1.1-0.5-1.1-0.7c0,0.1,0.5-0.5,1.5-1.8c1.2-1.5,2.1-2.9,2.8-4.3c1-2,1.5-3.8,1.5-5.4
			c0-6.2-2.1-10.2-6.4-12.1c-3.2-1.4-8.2-1.7-14.9-0.8c-1.5,0.2-6.6,1-15.3,2.5c-5.5,0.9-8.6,1.5-9.5,1.8c-0.9,0.3-1.3,0.7-1.3,1.2
			l0,0.6c0.2,4.5,0.4,7.8,0.5,10c0.3,8.7,0.5,14.7,0.5,17.9c0,3-0.2,7.5-0.5,13.5c-0.3,6-0.5,10.5-0.5,13.4c0,0.7,0.4,1,1.2,1.1
			c1.9,0.1,7.9-0.7,18.1-2.5c0.6-0.1,1.6-0.3,2.9-0.5c1.3-0.2,2.3-0.3,3-0.5c9-1.5,15.3-4.5,18.9-8.9c3.2-3.9,4.7-8.3,4.7-13.4
			c0-2.4-0.5-4.6-1.5-6.6C53.1,66.7,51.6,65.2,49.7,64.5z M23.3,55.5c0.1-1.1,0.1-1.9,0.1-2.4c0-0.4,1.5-0.9,4.4-1.4
			c3-0.5,5.2-0.7,6.5-0.5c2.4,0.4,3.5,1.7,3.5,4.1c0,3.4-2.9,5.6-8.8,6.6c-3.2,0.5-4.9,0.7-5.2,0.5c-0.5-0.2-0.7-1.7-0.7-4.5
			C23.2,57.4,23.2,56.6,23.3,55.5z M36.2,83.4c-1.2,0.7-3.3,1.3-6.3,1.8c-3.6,0.6-5.6,0.8-5.9,0.5c-0.4-0.3-0.5-2-0.5-5.3
			c0-3.1,0.2-4.8,0.5-5.1c0.3-0.3,2.2-0.8,5.8-1.4c3-0.5,5.1-0.6,6.4-0.3c2.1,0.5,3.1,2,3.1,4.5C39.2,80.5,38.2,82.3,36.2,83.4z"/>
		<radialGradient id="SVGID_2_" cx="122.0084" cy="64.851" r="122.4874" gradientUnits="userSpaceOnUse">
			<stop  offset="0" style="stop-color:#DD9D30"/>
			<stop  offset="0.5371" style="stop-color:#D6882E"/>
			<stop  offset="1" style="stop-color:#C65F20"/>
		</radialGradient>
		<path class="st4" d="M68.8,34.4c-2.2,0.4-4.1,1.3-5.6,2.9c-1.7,1.7-2.6,3.6-2.6,5.7c0,2.2,0.8,3.9,2.5,4.9c1.5,1,3.4,1.2,5.7,0.8
			c5.4-0.9,8.1-3.8,8.1-8.5c0-2.1-0.8-3.7-2.5-4.8C72.8,34.4,71,34.1,68.8,34.4z"/>
		<radialGradient id="SVGID_3_" cx="122.0082" cy="64.8509" r="122.4871" gradientUnits="userSpaceOnUse">
			<stop  offset="0" style="stop-color:#DD9D30"/>
			<stop  offset="0.5371" style="stop-color:#D6882E"/>
			<stop  offset="1" style="stop-color:#C65F20"/>
		</radialGradient>
		<path class="st5" d="M75.8,50.8c-0.8,0.1-2,0.4-3.6,0.8c-1.6,0.4-2.8,0.7-3.6,0.8c-0.8,0.1-2,0.3-3.6,0.4
			c-1.6,0.1-2.8,0.2-3.5,0.4c-0.7,0.1-1.1,0.5-1.1,1c0,0.1,0,0.4,0.1,0.9c0.6,4.5,0.9,10.7,0.9,18.4c0,1.9,0,4.8-0.1,8.6
			c-0.1,3.8-0.1,6.7-0.1,8.6c0,0.7,0,1.1,0.1,1.2c0.1,0.2,0.5,0.3,1.1,0.3c0.9,0,3-0.3,6.3-0.8c3.3-0.6,5.4-1,6.3-1.3
			c0.7-0.2,1-0.6,1-1.2c0-2,0-4.9-0.1-8.9c-0.1-4-0.1-6.9-0.1-8.9c0-7.1,0.3-13.3,0.9-18.8c0.1-0.4,0.1-0.7,0.1-0.8
			C76.8,50.9,76.5,50.6,75.8,50.8z"/>
		<radialGradient id="SVGID_4_" cx="122.0084" cy="64.8511" r="122.4875" gradientUnits="userSpaceOnUse">
			<stop  offset="0" style="stop-color:#DD9D30"/>
			<stop  offset="0.5371" style="stop-color:#D6882E"/>
			<stop  offset="1" style="stop-color:#C65F20"/>
		</radialGradient>
		<path class="st6" d="M124.6,64.4V51.2c0-3.4-1.3-5.8-3.9-7.2c-2.3-1.2-5.2-1.6-8.7-1c-2.4,0.4-5.3,1.9-8.5,4.3
			c-3.3,2.5-4.7,3.7-4.4,3.6c-0.3,0.1-0.5-0.8-0.7-2.7c-0.2-1.8-0.4-2.7-0.7-2.7c-0.5,0.1-3,0.9-7.4,2.5c-2.9,0.9-5.2,1.6-6.9,2.1
			c-0.4,0.2-0.6,0.6-0.6,1c0,0.2,0,0.4,0.1,0.6c1.1,3.7,1.6,9,1.6,15.8c0,2.2,0,5.4,0,9.7c0,4.3,0,7.5,0,9.7c0,0.8,0.4,1.1,1.3,1.1
			c1,0,3-0.3,6.3-0.8c3-0.5,4.9-0.9,5.9-1.2c0.9-0.3,1.3-0.8,1.3-1.7V62.2c0-1,0.8-2.2,2.3-3.5c1.4-1.2,2.7-1.9,3.7-2
			c3.3-0.6,4.9,1,4.9,4.8c0,1,0,2.5,0.1,4.5c0.1,2,0.1,3.5,0.1,4.5c0,1.3,0,3.3-0.1,5.9c-0.1,2.6-0.1,4.6-0.1,5.9
			c0,1,0.4,1.5,1.2,1.5c0.8,0,3-0.3,6.4-0.8c3.2-0.6,5.2-0.9,6-1.2c0.8-0.2,1.2-0.7,1.2-1.5c0-1.8,0-4.4,0-8
			C124.6,68.8,124.6,66.1,124.6,64.4z"/>
		<radialGradient id="SVGID_5_" cx="122.0085" cy="64.8509" r="122.4872" gradientUnits="userSpaceOnUse">
			<stop  offset="0" style="stop-color:#DD9D30"/>
			<stop  offset="0.5371" style="stop-color:#D6882E"/>
			<stop  offset="1" style="stop-color:#C65F20"/>
		</radialGradient>
		<path class="st7" d="M172.1,34.6c-0.2,0-2.4,0.1-6.7,0.4c-4.3,0.3-6.7,0.5-7.1,0.5c-0.5,0.1-0.7,1.2-0.7,3.4c0,1-0.1,1.5-0.4,1.5
			c-0.2,0-0.5-0.2-0.9-0.8c-2.2-2.6-5.4-3.5-9.5-2.8c-5.2,0.9-9.4,3.4-12.6,7.5c-3.1,4-4.6,8.6-4.6,13.8c0,5.2,1.6,9.3,4.8,12.4
			c3.3,3.1,7.6,4.3,12.7,3.4c4.4-0.7,8-2.7,10.8-5.8V71c0,1.8-1.2,3.5-3.5,5c-1.9,1.3-3.9,2.1-5.9,2.5c-3.6,0.6-7.5,0.2-11.7-1.1
			c-0.2-0.1-0.3-0.1-0.5-0.1c-0.4,0.1-0.7,0.5-0.9,1.3c-1.2,5.1-1.8,7.8-1.8,8.4c0,1.3,2.5,1.9,7.6,2c4,0.1,7.1-0.1,9.4-0.5
			c7.9-1.3,13.6-4,17-8.1c3.3-4,4.9-9.9,4.9-17.7c0-1.1,0-2.8,0-5.1c0-2.2,0-3.9,0-5.1c0-1.9,0.1-4.7,0.2-8.5
			c0.1-3.8,0.2-6.6,0.2-8.5C172.8,35,172.6,34.7,172.1,34.6z M156.3,59.3c-1.3,1.7-3,2.7-5,3.1c-1.9,0.3-3.6-0.1-5-1.3
			c-1.4-1.2-2-2.8-2-4.8c0-2,0.7-3.9,2-5.6c1.3-1.7,3-2.8,5-3.1c2-0.3,3.7,0.1,5,1.4c1.3,1.2,2,2.9,2,4.9
			C158.3,55.7,157.6,57.6,156.3,59.3z"/>
		<radialGradient id="SVGID_6_" cx="122.0083" cy="64.8511" r="122.4875" gradientUnits="userSpaceOnUse">
			<stop  offset="0" style="stop-color:#DD9D30"/>
			<stop  offset="0.5371" style="stop-color:#D6882E"/>
			<stop  offset="1" style="stop-color:#C65F20"/>
		</radialGradient>
		<path class="st8" d="M198.4,27.8c-6.4,1.1-11.4,3.9-15.1,8.5c-3.7,4.6-5.6,10.1-5.6,16.4c0,6,1.9,10.6,5.8,13.8
			c3.9,3.2,8.9,4.3,14.9,3.2c6.2-1.1,11.3-3.9,15.1-8.4c3.8-4.5,5.7-9.9,5.7-16.2c0-6.2-1.9-10.9-5.8-14.1
			C209.6,27.8,204.6,26.8,198.4,27.8z M203.8,53.6c-1.4,1.9-3.2,3.1-5.3,3.5c-2.2,0.4-4-0.2-5.3-1.6c-1.3-1.4-2-3.2-2-5.4
			c0-2.2,0.7-4.2,2-6c1.4-1.9,3.2-3.1,5.3-3.5c2.1-0.4,3.9,0.2,5.2,1.6c1.3,1.4,2,3.2,2,5.4C205.8,49.7,205.1,51.8,203.8,53.6z"/>
		<radialGradient id="SVGID_7_" cx="122.0092" cy="64.813" r="122.4799" gradientUnits="userSpaceOnUse">
			<stop  offset="0" style="stop-color:#DD9D30"/>
			<stop  offset="0.5371" style="stop-color:#D6882E"/>
			<stop  offset="1" style="stop-color:#C65F20"/>
		</radialGradient>
		<path class="st9" d="M225.2,29.4c0,1.2,1.3,6,3.9,14.4c0.2,0.8,1.5,1.1,3.7,0.7c1.9-0.3,3-1,3.3-2.1c1.1-4.7,2.2-9.3,3.3-14
			c0.9-4.5,1.4-9.3,1.4-14.3c0-6.6-0.3-9.9-0.8-9.8c-0.8,0.1-1.9,0.4-3.5,0.8c-1.5,0.4-2.7,0.6-3.5,0.8c-0.8,0.1-1.9,0.3-3.5,0.4
			c-1.5,0.2-2.7,0.3-3.5,0.4c-0.5,0.1-0.7,0.6-0.7,1.6c0,1.2,0,3.1,0.1,5.5c0.1,2.5,0.1,4.3,0.1,5.5c0,1.1-0.1,2.8-0.2,5
			C225.3,26.6,225.2,28.3,225.2,29.4z"/>
		<radialGradient id="SVGID_8_" cx="122.0092" cy="64.8511" r="122.4866" gradientUnits="userSpaceOnUse">
			<stop  offset="0" style="stop-color:#DD9D30"/>
			<stop  offset="0.5371" style="stop-color:#D6882E"/>
			<stop  offset="1" style="stop-color:#C65F20"/>
		</radialGradient>
		<path class="st10" d="M233,48.2c-2.3,0.4-4.2,1.4-5.6,3.2c-1.4,1.7-2.1,3.7-2.1,6c0,2.3,0.7,4.1,2.1,5.4c1.4,1.3,3.3,1.7,5.6,1.3
			c2.3-0.4,4.2-1.5,5.6-3.2c1.4-1.8,2.1-3.8,2.1-6.1c0-2.3-0.7-4.1-2.2-5.3C237.1,48.3,235.2,47.9,233,48.2z"/>
	</g>
	
		<linearGradient id="SVGID_9_" gradientUnits="userSpaceOnUse" x1="-315.8089" y1="319.7726" x2="-303.7794" y2="334.1475" gradientTransform="matrix(0.5707 0.3525 -0.7479 0.596 450.6107 -37.8518)">
		<stop  offset="0" style="stop-color:#FFFFFF"/>
		<stop  offset="1" style="stop-color:#070308"/>
	</linearGradient>
	<path class="st11" d="M49.4,42.5c3.5,3-0.4,7.5-8.8,10.2c-8.4,2.6-27.5-2.2-31-5.2c-3.5-3,8-3.5,18.2-5.6
		C36.4,40.2,45.9,39.6,49.4,42.5z"/>
	<linearGradient id="SVGID_10_" gradientUnits="userSpaceOnUse" x1="65.346" y1="35.831" x2="71.0127" y2="44.331">
		<stop  offset="0" style="stop-color:#FFFFFF"/>
		<stop  offset="1" style="stop-color:#070308"/>
	</linearGradient>
	<path class="st12" d="M65.4,36.4c3.3-2,7.5-1.5,9.4,1.2c1.9,2.6,0.8,6.3-2.5,8.3c-3.3,2-7.5,1.5-9.4-1.2
		C61,42.1,62.1,38.4,65.4,36.4z"/>
	<linearGradient id="SVGID_11_" gradientUnits="userSpaceOnUse" x1="229.6793" y1="50.4976" x2="235.346" y2="58.9977">
		<stop  offset="0" style="stop-color:#FFFFFF"/>
		<stop  offset="1" style="stop-color:#070308"/>
	</linearGradient>
	<path class="st13" d="M229.8,51.1c3.3-2,7.5-1.5,9.4,1.2c1.9,2.6,0.8,6.3-2.5,8.3c-3.3,2-7.5,1.5-9.4-1.2
		C225.4,56.8,226.5,53.1,229.8,51.1z"/>
	<linearGradient id="SVGID_12_" gradientUnits="userSpaceOnUse" x1="108.2106" y1="44.5411" x2="115.1512" y2="54.9521">
		<stop  offset="0" style="stop-color:#FFFFFF"/>
		<stop  offset="1" style="stop-color:#070308"/>
	</linearGradient>
	<path class="st14" d="M109.3,45c4.9-2.4,11.1-1,13,1.6c1.9,2.6,0.8,6.3-2.5,8.3c-3.3,2-17.3,0.4-19-2.4
		C99.8,50.7,105.8,46.6,109.3,45z"/>
	<linearGradient id="SVGID_13_" gradientUnits="userSpaceOnUse" x1="141.3983" y1="39.1235" x2="146.6328" y2="46.9753">
		<stop  offset="0" style="stop-color:#FFFFFF"/>
		<stop  offset="1" style="stop-color:#070308"/>
	</linearGradient>
	<path class="st15" d="M142.3,39.3c4.9-2.4,10.8-1.6,12.8,1.1c1.9,2.6,0.1,3.3-3.2,5.3c-3.3,2-15.8,4.9-17.5,2.1
		C133.3,46,138.8,41,142.3,39.3z"/>
	
		<linearGradient id="SVGID_14_" gradientUnits="userSpaceOnUse" x1="199.1905" y1="-7.6432" x2="205.3792" y2="1.6398" gradientTransform="matrix(0.996 -8.950000e-02 8.950000e-02 0.996 -6.0966 55.5312)">
		<stop  offset="0" style="stop-color:#FFFFFF"/>
		<stop  offset="1" style="stop-color:#070308"/>
	</linearGradient>
	<path class="st16" d="M192.4,30.9c5.8-2.9,13.2-2.7,15.8-0.4c2.6,2.4,0.4,3.3-3.4,5.6c-3.9,2.3-19,6.7-21.3,4.1
		C181.9,38.5,188.3,32.9,192.4,30.9z"/>
	
		<linearGradient id="SVGID_15_" gradientUnits="userSpaceOnUse" x1="87.192" y1="151.7093" x2="91.7668" y2="158.5715" gradientTransform="matrix(0.9703 0.2418 -0.2418 0.9703 42.1415 -119.7083)">
		<stop  offset="0" style="stop-color:#FFFFFF"/>
		<stop  offset="1" style="stop-color:#070308"/>
	</linearGradient>
	<path class="st17" d="M90.6,48.9c4.3-1.5,6.2-2.2,7.1-0.2c0.8,2,0.6,7.6-1.8,8.3c-2.5,0.8-11.3-2.5-11.9-4.6
		C83.5,51.1,88.2,49.7,90.6,48.9z"/>
	
		<linearGradient id="SVGID_16_" gradientUnits="userSpaceOnUse" x1="85.8618" y1="248.4975" x2="90.2977" y2="255.1513" gradientTransform="matrix(0.8965 0.443 -0.443 0.8965 101.5707 -208.0446)">
		<stop  offset="0" style="stop-color:#FFFFFF"/>
		<stop  offset="1" style="stop-color:#070308"/>
	</linearGradient>
	<path class="st18" d="M68.7,53.5c4.3-0.6,6.5-2.1,6.8,0c0.3,2.1-1.1,8.2-3.5,8.5c-2.5,0.2-10-4.8-10.2-6.9
		C61.7,53.7,66.2,53.9,68.7,53.5z"/>
	
		<linearGradient id="SVGID_17_" gradientUnits="userSpaceOnUse" x1="179.7727" y1="221.3901" x2="184.3299" y2="228.226" gradientTransform="matrix(0.8817 0.4718 -0.4718 0.8817 111.2538 -244.5336)">
		<stop  offset="0" style="stop-color:#FFFFFF"/>
		<stop  offset="1" style="stop-color:#070308"/>
	</linearGradient>
	<path class="st19" d="M165.7,35.9c4.2-0.4,6.2-0.6,6.5,1.6c0.3,2.2-1.2,7.5-3.6,7.6c-2.4,0.1-9.7-5.2-9.8-7.4
		C158.8,36.3,163.3,36.1,165.7,35.9z"/>
</g>
</svg>
